<?xml version="1.0" encoding="UTF-8" standalone="no"?>
<!-- Created with Inkscape (http://www.inkscape.org/) -->

<svg
   width="84.272316mm"
   height="14.523192mm"
   viewBox="0 0 84.272316 14.523192"
   version="1.1"
   id="svg2095"
   inkscape:version="1.1.2 (0a00cf5339, 2022-02-04)"
   sodipodi:docname="oak-logo.svg"
   xmlns:inkscape="http://www.inkscape.org/namespaces/inkscape"
   xmlns:sodipodi="http://sodipodi.sourceforge.net/DTD/sodipodi-0.dtd"
   xmlns="http://www.w3.org/2000/svg"
   xmlns:svg="http://www.w3.org/2000/svg">
  <sodipodi:namedview
     id="namedview2097"
     pagecolor="#ffffff"
     bordercolor="#666666"
     borderopacity="1.0"
     inkscape:pageshadow="2"
     inkscape:pageopacity="0.0"
     inkscape:pagecheckerboard="0"
     inkscape:document-units="mm"
     showgrid="false"
     fit-margin-top="0"
     fit-margin-left="0"
     fit-margin-right="0"
     fit-margin-bottom="0"
     inkscape:zoom="0.72782688"
     inkscape:cx="79.002303"
     inkscape:cy="-86.559045"
     inkscape:window-width="1920"
     inkscape:window-height="995"
     inkscape:window-x="0"
     inkscape:window-y="0"
     inkscape:window-maximized="1"
     inkscape:current-layer="text24122-3-5-9-6" />
  <defs
     id="defs2092" />
  <g
     inkscape:label="Layer 1"
     inkscape:groupmode="layer"
     id="layer1"
     transform="translate(-59.650869,-171.59275)">
    <g
       id="g16677-0-5-61-3"
       transform="matrix(0.71967634,0,0,0.71967634,30.65794,160.11082)">
      <g
         id="g1093-4-9-0-0">
        <ellipse
           id="path9713-6-2-2-3-3-4-6-4-4"
           cx="48.352718"
           cy="23.616285"
           rx="3.4338517"
           ry="4.666791"
           style="fill:#ffbf00;fill-opacity:1;stroke:#737373;stroke-width:0.18087;stroke-miterlimit:4;stroke-dasharray:none;stroke-opacity:1" />
        <g
           id="g1086-4-2-22-4"
           transform="translate(0.00621353)">
          <path
             style="fill:#34a852;fill-opacity:1;stroke:#6d6d6d;stroke-width:0.18087;stroke-linecap:butt;stroke-linejoin:round;stroke-miterlimit:4;stroke-dasharray:none;stroke-opacity:1"
             d="m 40.370287,24.132384 7.070141,-0.107451 0.0395,10.637571 c 0,0 -6.003695,0.21491 -7.109642,-10.53012 z"
             id="path9925-6-6-9-6-5-4-1-2-4"
             sodipodi:nodetypes="cccc" />
          <path
             style="fill:#34a852;fill-opacity:1;stroke:#737373;stroke-width:0.18087;stroke-linecap:butt;stroke-linejoin:round;stroke-miterlimit:4;stroke-dasharray:none;stroke-opacity:1"
             d="m 56.322723,24.132381 -7.070141,-0.107451 -0.0395,10.637574 c 0,0 6.003695,0.2149 7.109641,-10.530123 z"
             id="path9925-6-6-9-6-5-6-7-7-05-4"
             sodipodi:nodetypes="cccc" />
        </g>
        <path
           id="path10128-9-6-0-6-5-6-8-52-7"
           style="fill:#137333;fill-opacity:1;stroke:#737373;stroke-width:0.18087;stroke-miterlimit:4;stroke-dasharray:none;stroke-opacity:1"
           d="m 48.350392,16.044738 a 7.9903085,6.9200343 0 0 0 -7.935184,6.151089 h 15.875021 a 7.9903085,6.9200343 0 0 0 -7.939837,-6.151089 z" />
      </g>
      <g
         aria-label="Project Oak"
         transform="matrix(0.27175809,0,0,0.27175809,27.788491,-104.41904)"
         id="text24122-3-5-9-6"
         style="font-size:66.6667px;line-height:1.25;white-space:pre;shape-inside:url(#rect24124)">
        <path
           d="m 122.54414,502.13418 v -47.73336 h 16.80001 q 3.4,0 6.33334,1.13333 3,1.06667 5.2,3.06667 2.2,2 3.46667,4.8 1.26667,2.73334 1.26667,6.06667 0,3.4 -1.26667,6.20001 -1.26667,2.73333 -3.46667,4.73333 -2.2,2 -5.2,3.13334 -2.93334,1.06666 -6.33334,1.06666 h -7.8 v 17.53335 z m 16.93335,-26.06668 q 3.53333,0 5.33333,-2.00001 1.8,-2 1.8,-4.6 0,-1.26667 -0.46666,-2.46667 -0.4,-1.2 -1.33334,-2.06666 -0.86667,-0.93334 -2.2,-1.46667 -1.33333,-0.53333 -3.13333,-0.53333 h -7.93334 v 13.13334 z"
           style="font-weight:bold;font-family:'Product Sans';-inkscape-font-specification:'Product Sans Bold';fill:#666666"
           id="path15728-1-7-0-3" />
        <path
           d="m 160.9441,469.46749 h 8.20001 v 4.53334 h 0.53333 q 0.6,-1.2 1.6,-2.2 1,-1 2.2,-1.73334 1.26667,-0.73333 2.66667,-1.13333 1.46667,-0.4 2.86667,-0.4 1.73333,0 2.93333,0.33333 1.26667,0.33334 2.13334,0.86667 l -2.33334,7.93334 q -0.8,-0.4 -1.8,-0.6 -0.93333,-0.26667 -2.33333,-0.26667 -1.8,0 -3.26667,0.73333 -1.46667,0.66667 -2.53334,1.93334 -1,1.26666 -1.6,3 -0.53333,1.66667 -0.53333,3.66667 v 16.00001 h -8.73334 z"
           style="font-weight:bold;font-family:'Product Sans';-inkscape-font-specification:'Product Sans Bold';fill:#666666"
           id="path15730-7-4-2-1" />
        <path
           d="m 201.54405,468.40082 q 3.8,0 6.93334,1.33334 3.2,1.26667 5.46667,3.6 2.33333,2.26667 3.6,5.46667 1.33333,3.2 1.33333,7 0,3.80001 -1.33333,7.00001 -1.26667,3.2 -3.6,5.53333 -2.26667,2.26667 -5.46667,3.60001 -3.13334,1.26666 -6.93334,1.26666 -3.8,0 -7,-1.26666 -3.13334,-1.33334 -5.46667,-3.60001 -2.26667,-2.33333 -3.60001,-5.53333 -1.26666,-3.2 -1.26666,-7.00001 0,-3.8 1.26666,-7 1.33334,-3.2 3.60001,-5.46667 2.33333,-2.33333 5.46667,-3.6 3.2,-1.33334 7,-1.33334 z m 0,26.73335 q 1.66667,0 3.2,-0.6 1.6,-0.66666 2.8,-1.86667 1.2,-1.2 1.86667,-2.93333 0.73333,-1.73333 0.73333,-3.93334 0,-2.2 -0.73333,-3.93333 -0.66667,-1.73334 -1.86667,-2.93334 -1.2,-1.2 -2.8,-1.8 -1.53333,-0.66666 -3.2,-0.66666 -1.73333,0 -3.26667,0.66666 -1.53333,0.6 -2.73333,1.8 -1.2,1.2 -1.93334,2.93334 -0.66666,1.73333 -0.66666,3.93333 0,2.20001 0.66666,3.93334 0.73334,1.73333 1.93334,2.93333 1.2,1.20001 2.73333,1.86667 1.53334,0.6 3.26667,0.6 z"
           style="font-weight:bold;font-family:'Product Sans';-inkscape-font-specification:'Product Sans Bold';fill:#666666"
           id="path15732-5-18-83-7" />
        <path
           d="m 219.41054,508.53418 q 0.53333,0.33333 1,0.46667 0.53333,0.13333 1.26667,0.13333 3,0 3,-3.93334 v -35.73335 h 8.73333 v 36.00002 q 0,3.2 -0.86666,5.4 -0.86667,2.26667 -2.33334,3.66667 -1.46666,1.4 -3.4,2 -1.93333,0.66667 -4.13333,0.66667 -1.66667,0 -3.00001,-0.26667 -1.33333,-0.2 -2.46666,-0.66666 z m 9.6,-43.80002 q -1.13333,0 -2.2,-0.4 -1,-0.46667 -1.8,-1.2 -0.73333,-0.80001 -1.2,-1.80001 -0.4,-1 -0.4,-2.2 0,-1.2 0.4,-2.2 0.46667,-1 1.2,-1.73333 0.8,-0.8 1.8,-1.2 1.06667,-0.46667 2.2,-0.46667 2.33334,0 4,1.66667 1.66667,1.6 1.66667,3.93333 0,2.33334 -1.66667,4.00001 -1.66666,1.6 -4,1.6 z"
           style="font-weight:bold;font-family:'Product Sans';-inkscape-font-specification:'Product Sans Bold';fill:#666666"
           id="path15734-9-5-8-5" />
        <path
           d="m 272.01042,494.26751 q -2.26667,4 -6.13334,6.46667 -3.8,2.46666 -9.33334,2.46666 -3.73333,0 -6.93333,-1.26666 -3.13334,-1.33334 -5.46667,-3.66667 -2.33334,-2.33334 -3.66667,-5.46667 -1.26667,-3.2 -1.26667,-7.00001 0,-3.53333 1.26667,-6.66667 1.26667,-3.2 3.53333,-5.53333 2.26667,-2.4 5.33334,-3.8 3.13334,-1.40001 6.86667,-1.40001 3.93334,0 7.00001,1.33334 3.06666,1.26667 5.13333,3.6 2.06667,2.26667 3.13334,5.4 1.06666,3.13334 1.06666,6.80001 0,0.46666 0,0.8 -0.0667,0.4 -0.0667,0.73333 -0.0667,0.33333 -0.0667,0.73334 h -24.60001 q 0.26666,2 1.06666,3.46666 0.86667,1.4 2.06667,2.40001 1.26667,0.93333 2.73334,1.4 1.46666,0.4 3,0.4 3,0 4.93333,-1.33334 2.00001,-1.4 3.13334,-3.46667 z m -7.93334,-12.66668 q -0.0667,-0.86667 -0.6,-1.93333 -0.46666,-1.06667 -1.46667,-2 -0.93333,-0.93334 -2.4,-1.53334 -1.4,-0.6 -3.4,-0.6 -2.8,0 -4.93333,1.6 -2.13334,1.6 -3.00001,4.46667 z"
           style="font-weight:bold;font-family:'Product Sans';-inkscape-font-specification:'Product Sans Bold';fill:#666666"
           id="path15736-6-97-04-9" />
        <path
           d="m 309.47703,493.80084 q -2.13333,4.13333 -6,6.8 -3.8,2.6 -9.53334,2.6 -3.8,0 -7,-1.26666 -3.13334,-1.33334 -5.46667,-3.66667 -2.26667,-2.33334 -3.6,-5.46667 -1.26667,-3.2 -1.26667,-7.00001 0,-3.8 1.26667,-7 1.33333,-3.2 3.6,-5.46667 2.33333,-2.33333 5.46667,-3.6 3.2,-1.33334 7,-1.33334 5.66667,0 9.53334,2.60001 3.86667,2.6 5.66667,6.73333 l -8,3.33334 q -1.13334,-2.26667 -2.93334,-3.4 -1.73333,-1.2 -4.4,-1.2 -1.73333,0 -3.26667,0.66666 -1.53333,0.66667 -2.73333,1.86667 -1.13334,1.2 -1.8,2.93334 -0.66667,1.73333 -0.66667,3.86666 0,2.13334 0.66667,3.86667 0.66666,1.73334 1.8,2.93334 1.2,1.2 2.73333,1.86667 1.53334,0.66666 3.26667,0.66666 2.73333,0 4.6,-1.2 1.93334,-1.26667 3.06667,-3.6 z"
           style="font-weight:bold;font-family:'Product Sans';-inkscape-font-specification:'Product Sans Bold';fill:#666666"
           id="path15738-2-5-0-6" />
        <path
           d="m 318.07685,476.93416 h -5.73333 v -7.46667 h 5.73333 v -10 h 8.73334 v 10 h 8 v 7.46667 h -8 v 12.66668 q 0,1.13333 0.2,2.13333 0.26667,0.93333 0.93333,1.6 0.93334,1.06667 2.66667,1.06667 1.13334,0 1.8,-0.2 0.66667,-0.26667 1.26667,-0.66667 l 2.46667,7.66667 q -1.53334,0.73334 -3.33334,1.06667 -1.73333,0.4 -3.86667,0.4 -2.46666,0 -4.46666,-0.73333 -1.93334,-0.8 -3.26667,-2.13334 -3.13334,-3 -3.13334,-8.53334 z"
           style="font-weight:bold;font-family:'Product Sans';-inkscape-font-specification:'Product Sans Bold';fill:#666666"
           id="path15740-1-3-9-2" />
        <path
           d="M 337.47679,502.13418 Z"
           style="font-weight:bold;font-family:'Product Sans';-inkscape-font-specification:'Product Sans Bold';fill:#666666"
           id="path15742-7-8-1-1" />
        <path
           d="m 378.21007,503.20084 q -5.33333,0 -9.93334,-1.93333 -4.53333,-1.93334 -7.86667,-5.26667 -3.33333,-3.4 -5.26667,-7.93334 -1.86666,-4.6 -1.86666,-9.8 0,-5.20001 1.86666,-9.73334 1.93334,-4.6 5.26667,-7.93334 3.33334,-3.4 7.86667,-5.33334 4.60001,-1.93333 9.93334,-1.93333 5.33334,0 9.86668,1.93333 4.6,1.93334 7.93333,5.33334 3.33334,3.33334 5.20001,7.93334 1.93333,4.53333 1.93333,9.73334 0,5.2 -1.93333,9.8 -1.86667,4.53334 -5.20001,7.93334 -3.33333,3.33333 -7.93333,5.26667 -4.53334,1.93333 -9.86668,1.93333 z m 0,-8.53333 q 3.33334,0 6.20001,-1.20001 2.93333,-1.2 5.06667,-3.33333 2.2,-2.13333 3.4,-5.13334 1.26667,-3.06666 1.26667,-6.73333 0,-3.66667 -1.26667,-6.66667 -1.2,-3.06667 -3.4,-5.20001 -2.13334,-2.13333 -5.06667,-3.33333 -2.86667,-1.2 -6.20001,-1.2 -3.33333,0 -6.26667,1.2 -2.86666,1.2 -5.06667,3.33333 -2.13333,2.13334 -3.4,5.20001 -1.2,3 -1.2,6.66667 0,3.66667 1.2,6.73333 1.26667,3.00001 3.4,5.13334 2.20001,2.13333 5.06667,3.33333 2.93334,1.20001 6.26667,1.20001 z"
           style="font-weight:bold;font-family:'Product Sans';-inkscape-font-specification:'Product Sans Bold';fill:#666666"
           id="path15744-8-8-9-7" />
        <path
           d="m 429.47666,498.66751 h -0.53333 q -1.53333,1.86667 -3.73333,3.2 -2.13334,1.33333 -5.53334,1.33333 -2.53334,0 -4.8,-0.86666 -2.2,-0.8 -3.86667,-2.26667 -1.66667,-1.46667 -2.6,-3.53334 -0.93334,-2.06666 -0.93334,-4.53333 0,-2.53334 1,-4.53334 1,-2.06667 2.80001,-3.53333 1.8,-1.46667 4.2,-2.2 2.46667,-0.80001 5.33333,-0.80001 3.20001,0 5.26667,0.53334 2.06667,0.46667 3.4,1 v -1 q 0,-2.6 -2.06666,-4.26667 -2.06667,-1.73333 -5.13334,-1.73333 -4.53333,0 -7.66667,3.8 l -6.33334,-4.33334 q 5.20001,-6.53334 14.20001,-6.53334 7.60001,0 11.60001,3.60001 4,3.53333 4,10.53334 v 19.60001 h -8.60001 z m 0,-9.80001 q -1.53333,-0.73333 -3.2,-1.13333 -1.6,-0.46667 -3.53333,-0.46667 -3.13334,0 -4.86667,1.4 -1.66667,1.33334 -1.66667,3.33334 0,2 1.6,3.2 1.66667,1.2 3.8,1.2 1.73334,0 3.20001,-0.6 1.46666,-0.66667 2.46666,-1.66667 1.06667,-1.06667 1.6,-2.4 0.6,-1.4 0.6,-2.86667 z"
           style="font-weight:bold;font-family:'Product Sans';-inkscape-font-specification:'Product Sans Bold';fill:#666666"
           id="path15746-5-31-6-8" />
        <path
           d="m 445.01001,454.40082 h 8.73334 v 26.00001 h 0.4 l 10.93334,-10.93334 h 10.8 v 0.53334 l -12.13334,11.8 13.13334,19.80001 v 0.53334 h -10.33334 l -8.93334,-14.33334 -3.86666,3.8 v 10.53334 h -8.73334 z"
           style="font-weight:bold;font-family:'Product Sans';-inkscape-font-specification:'Product Sans Bold';fill:#666666"
           id="path15748-7-89-2-5" />
      </g>
    </g>
  </g>
</svg>
