<svg width="504" height="87" viewBox="0 0 504 87" fill="none" xmlns="http://www.w3.org/2000/svg">
<path d="M130.495 46.5571L140.016 48.4827C148.36 50.1944 156.063 53.4037 156.063 61.4271C156.063 68.9156 149.002 73.7297 138.946 73.7297C128.034 73.7297 120.867 68.2738 118.62 57.6829H106.638C108.457 73.9436 120.546 83.8927 138.518 83.8927C153.602 83.8927 168.365 75.8693 168.365 60.4643C168.365 44.8454 154.779 40.1384 142.369 37.5709L133.169 35.6453C126.537 34.2545 121.402 30.9382 121.402 24.5195C121.402 16.3891 131.137 13.7146 136.806 13.7146C144.188 13.7146 152.639 16.4961 155.1 25.6962H166.868C163.872 10.0773 151.57 3.55164 137.341 3.55164C124.29 3.55164 108.992 10.3983 108.992 25.0544C108.992 38.1058 119.476 44.3105 130.495 46.5571Z" fill="black"/>
<path d="M231.542 53.9386C231.542 33.0778 217.206 23.8776 203.513 23.8776C189.927 23.8776 175.592 33.0778 175.592 53.9386C175.592 74.6925 189.927 83.8927 203.513 83.8927C217.206 83.8927 231.542 74.6925 231.542 53.9386ZM203.513 74.4785C195.169 74.4785 187.359 68.1668 187.359 53.9386C187.359 39.3895 195.169 33.2917 203.513 33.2917C211.964 33.2917 219.774 39.6035 219.774 53.9386C219.774 67.9528 211.964 74.4785 203.513 74.4785Z" fill="black"/>
<path d="M268.928 36.3941V24.8404C267.965 24.7334 266.788 24.7334 265.825 24.7334C258.658 24.8404 252.881 28.5847 249.885 35.1104V24.9474H238.974V82.5019H250.099V52.3339C250.099 40.2453 254.593 36.0732 263.151 36.0732C264.969 36.0732 266.895 36.1801 268.928 36.3941Z" fill="black"/>
<path d="M327.112 53.9386C327.112 33.0778 312.777 23.8776 299.084 23.8776C285.497 23.8776 271.162 33.0778 271.162 53.9386C271.162 74.6925 285.497 83.8927 299.084 83.8927C312.777 83.8927 327.112 74.6925 327.112 53.9386ZM299.084 74.4785C290.739 74.4785 282.93 68.1668 282.93 53.9386C282.93 39.3895 290.739 33.2917 299.084 33.2917C307.535 33.2917 315.344 39.6035 315.344 53.9386C315.344 67.9528 307.535 74.4785 299.084 74.4785Z" fill="black"/>
<path d="M346.67 4.94236H335.544V82.5019H346.67V74.3715C350.2 80.2554 356.191 83.8927 364.642 83.8927C378.015 83.8927 389.461 72.6599 389.461 53.8316C389.461 35.1104 378.015 23.8776 364.642 23.8776C356.191 23.8776 350.2 27.5149 346.67 33.3987V4.94236ZM362.075 74.5855C353.517 74.5855 346.242 68.0598 346.242 53.8316C346.242 39.6035 353.517 33.1847 362.075 33.1847C371.275 33.1847 377.587 40.8872 377.587 53.8316C377.587 66.7761 371.275 74.5855 362.075 74.5855Z" fill="black"/>
<path d="M395.428 66.99C395.428 77.4739 404.307 83.8927 415.967 83.8927C425.275 83.8927 431.8 80.6833 435.224 74.9064C435.438 78.5437 435.759 80.2554 436.186 82.5019H446.884C445.815 77.367 445.28 70.3064 445.28 61.7481C445.28 59.2876 445.494 49.3385 445.494 47.9478C445.708 30.7242 437.149 23.5567 422.279 23.5567C409.121 23.5567 399.065 30.9382 398.102 43.1338H409.335C409.763 36.0732 414.149 32.115 421.851 32.115C428.912 32.115 434.261 35.5383 434.261 45.7012V46.878C411.902 49.2316 395.428 52.9758 395.428 66.99ZM434.796 55.1154V59.2876C434.796 70.7343 427.628 75.3344 418.428 75.3344C411.688 75.3344 407.516 72.018 407.516 66.7761C407.516 59.2876 416.93 56.827 434.796 55.1154Z" fill="black"/>
<path d="M465.687 33.2917V24.9474H454.561V82.5019H465.687V51.5851C465.687 40.1384 470.394 33.1847 480.022 33.1847C490.506 33.1847 491.896 40.8872 491.896 49.2315V82.5019H503.022V46.2361C503.022 32.8638 497.673 23.8776 483.766 23.8776C474.78 23.8776 469.003 27.6218 465.687 33.2917Z" fill="black"/>
<path d="M27.4906 51.5839L60.4393 75.4988C52.9652 79.763 42.1096 79.3947 35.2196 74.3938L11.8142 57.4057C9.5993 55.798 9.5993 53.1915 11.8142 51.5839C16.1431 48.4419 23.1617 48.4419 27.4906 51.5839Z" fill="black" stroke="black" stroke-width="4"/>
<path d="M46.678 13.0506L70.0834 30.0387C72.2983 31.6464 72.2983 34.2529 70.0834 35.8605C65.7545 39.0025 58.736 39.0025 54.407 35.8605L21.4584 11.9456C28.9325 7.68138 39.788 8.04969 46.678 13.0506Z" fill="black" stroke="black" stroke-width="4"/>
<path d="M65.4564 70.1318L17.6085 35.4028C10.7186 30.4019 10.2111 22.5227 16.0862 17.0978L63.9341 51.8268C70.824 56.8277 71.3315 64.7069 65.4564 70.1318Z" fill="black" stroke="black" stroke-width="4"/>
</svg>
