<svg width="504" height="87" viewBox="0 0 504 87" fill="none" xmlns="http://www.w3.org/2000/svg">
<path d="M130.495 46.514L140.016 48.4396C148.36 50.1513 156.063 53.3606 156.063 61.384C156.063 68.8725 149.002 73.6866 138.946 73.6866C128.034 73.6866 120.867 68.2307 118.62 57.6398H106.638C108.457 73.9005 120.546 83.8496 138.518 83.8496C153.602 83.8496 168.365 75.8262 168.365 60.4212C168.365 44.8023 154.779 40.0953 142.369 37.5278L133.169 35.6022C126.537 34.2114 121.402 30.8951 121.402 24.4764C121.402 16.346 131.137 13.6715 136.806 13.6715C144.188 13.6715 152.639 16.453 155.1 25.6531H166.868C163.872 10.0342 151.57 3.50854 137.341 3.50854C124.29 3.50854 108.992 10.3552 108.992 25.0113C108.992 38.0627 119.476 44.2674 130.495 46.514Z" fill="white"/>
<path d="M231.542 53.8955C231.542 33.0347 217.206 23.8345 203.513 23.8345C189.927 23.8345 175.592 33.0347 175.592 53.8955C175.592 74.6494 189.927 83.8496 203.513 83.8496C217.206 83.8496 231.542 74.6494 231.542 53.8955ZM203.513 74.4354C195.169 74.4354 187.359 68.1237 187.359 53.8955C187.359 39.3464 195.169 33.2486 203.513 33.2486C211.964 33.2486 219.774 39.5604 219.774 53.8955C219.774 67.9097 211.964 74.4354 203.513 74.4354Z" fill="white"/>
<path d="M268.928 36.351V24.7973C267.965 24.6903 266.788 24.6903 265.825 24.6903C258.658 24.7973 252.881 28.5416 249.885 35.0673V24.9043H238.974V82.4588H250.099V52.2908C250.099 40.2022 254.593 36.0301 263.151 36.0301C264.969 36.0301 266.895 36.1371 268.928 36.351Z" fill="white"/>
<path d="M327.112 53.8955C327.112 33.0347 312.777 23.8345 299.084 23.8345C285.497 23.8345 271.162 33.0347 271.162 53.8955C271.162 74.6494 285.497 83.8496 299.084 83.8496C312.777 83.8496 327.112 74.6494 327.112 53.8955ZM299.084 74.4354C290.739 74.4354 282.93 68.1237 282.93 53.8955C282.93 39.3464 290.739 33.2486 299.084 33.2486C307.535 33.2486 315.344 39.5604 315.344 53.8955C315.344 67.9097 307.535 74.4354 299.084 74.4354Z" fill="white"/>
<path d="M346.67 4.89927H335.544V82.4588H346.67V74.3285C350.2 80.2123 356.191 83.8496 364.642 83.8496C378.015 83.8496 389.461 72.6168 389.461 53.7885C389.461 35.0673 378.015 23.8345 364.642 23.8345C356.191 23.8345 350.2 27.4718 346.67 33.3556V4.89927ZM362.075 74.5424C353.517 74.5424 346.242 68.0167 346.242 53.7885C346.242 39.5604 353.517 33.1417 362.075 33.1417C371.275 33.1417 377.587 40.8441 377.587 53.7885C377.587 66.733 371.275 74.5424 362.075 74.5424Z" fill="white"/>
<path d="M395.428 66.9469C395.428 77.4308 404.307 83.8496 415.967 83.8496C425.275 83.8496 431.8 80.6402 435.224 74.8633C435.438 78.5006 435.759 80.2123 436.186 82.4588H446.884C445.815 77.3239 445.28 70.2633 445.28 61.705C445.28 59.2445 445.494 49.2954 445.494 47.9047C445.708 30.6811 437.149 23.5136 422.279 23.5136C409.121 23.5136 399.065 30.8951 398.102 43.0907H409.335C409.763 36.0301 414.149 32.0719 421.851 32.0719C428.912 32.0719 434.261 35.4952 434.261 45.6582V46.8349C411.902 49.1885 395.428 52.9327 395.428 66.9469ZM434.796 55.0723V59.2445C434.796 70.6912 427.628 75.2913 418.428 75.2913C411.688 75.2913 407.516 71.9749 407.516 66.733C407.516 59.2445 416.93 56.7839 434.796 55.0723Z" fill="white"/>
<path d="M465.687 33.2486V24.9043H454.561V82.4588H465.687V51.542C465.687 40.0953 470.394 33.1417 480.022 33.1417C490.506 33.1417 491.896 40.8441 491.896 49.1885V82.4588H503.022V46.1931C503.022 32.8207 497.673 23.8345 483.766 23.8345C474.78 23.8345 469.003 27.5788 465.687 33.2486Z" fill="white"/>
<path d="M27.4906 51.5408L60.4393 75.4557C52.9652 79.7199 42.1096 79.3516 35.2196 74.3507L11.8142 57.3626C9.5993 55.7549 9.5993 53.1485 11.8142 51.5408C16.1431 48.3988 23.1617 48.3988 27.4906 51.5408Z" fill="white" stroke="white" stroke-width="4"/>
<path d="M46.678 13.0075L70.0834 29.9957C72.2983 31.6033 72.2983 34.2098 70.0834 35.8174C65.7545 38.9594 58.736 38.9594 54.407 35.8174L21.4584 11.9026C28.9325 7.63828 39.788 8.00659 46.678 13.0075Z" fill="white" stroke="white" stroke-width="4"/>
<path d="M65.4564 70.0887L17.6085 35.3597C10.7186 30.3588 10.2111 22.4796 16.0862 17.0547L63.9341 51.7838C70.824 56.7846 71.3315 64.6639 65.4564 70.0887Z" fill="white" stroke="white" stroke-width="4"/>
</svg>
