<svg width="127" height="32" viewBox="0 0 127 32" fill="none" xmlns="http://www.w3.org/2000/svg">
<path fill-rule="evenodd" clip-rule="evenodd" d="M1.96567 15.4518L0 12.3061L19.6939 0L21.6596 3.14573L10.959 9.83221H8.33004V11.4749L1.96567 15.4518ZM8.33004 12.8533L2.58508 16.4432L4.55075 19.5889L12.7628 14.4574H8.33004V12.8533ZM14.9687 14.4574L10.104 17.4972H17.1039L21.9686 14.4574H14.9687ZM23.6737 13.3919V9.83221H22.3706L24.8641 8.27408L26.8298 11.4198L23.6737 13.3919ZM9.70201 22.1224H8.33004V18.6057L5.17023 20.5802L7.1359 23.7259L9.70201 22.1224ZM11.9078 22.1224H18.9077L9.72098 27.863L7.75531 24.7172L11.9078 22.1224ZM23.6737 19.1443V17.4972H19.3098L27.4492 12.4111L29.4149 15.5568L23.6737 19.1443ZM21.1136 22.1224H23.6737V20.5227L30.0344 16.5482L32 19.6939L12.3061 32L10.3405 28.8543L21.1136 22.1224ZM20.1647 9.83221H13.1648L22.279 4.13704L24.2447 7.28277L20.1647 9.83221Z" fill="#EDECF0"/>
<path fill-rule="evenodd" clip-rule="evenodd" d="M92.7967 4.55896C92.3428 4.17844 91.7421 3.98682 90.9946 3.98682C90.2472 3.98682 89.6682 4.17844 89.2048 4.55896C88.7427 4.94085 88.5103 5.44777 88.5103 6.08107C88.5103 6.71437 88.7414 7.24575 89.2048 7.62628C89.6669 8.00816 90.2635 8.19843 90.9946 8.19843C91.7258 8.19843 92.3414 8.00816 92.7967 7.62628C93.2506 7.24575 93.4789 6.72932 93.4789 6.08107C93.4789 5.43282 93.252 4.94085 92.7967 4.55896ZM50.7677 10.3294C49.7375 9.72058 48.5402 9.41615 47.1771 9.41615C45.8942 9.41615 44.7309 9.7165 43.6831 10.3172C42.6366 10.9179 41.7682 11.7659 41.0778 12.8613L41.0412 12.9224V9.78173H36.9763V27.6502H41.0412V20.4732L41.0572 20.5004C41.0677 20.5185 41.0783 20.5366 41.0901 20.5547C41.7873 21.6501 42.6516 22.4981 43.6831 23.0988C44.7132 23.6995 45.8779 23.9998 47.1771 23.9998C48.5402 23.9998 49.7375 23.6954 50.7677 23.0866C51.7978 22.4777 52.6051 21.6256 53.1895 20.5302C53.7738 19.4349 54.066 18.1655 54.066 16.7209C54.066 15.2763 53.7738 13.9825 53.1895 12.8871C52.6051 11.7917 51.7978 10.9396 50.7677 10.3308V10.3294ZM49.4535 18.8614C49.1205 19.4784 48.6626 19.9608 48.0782 20.3101C47.4938 20.6593 46.8197 20.8333 46.0573 20.8333C45.2949 20.8333 44.5719 20.6593 43.891 20.3101C43.2088 19.9608 42.6135 19.4784 42.1012 18.8614C41.5902 18.2444 41.1879 17.5309 40.8957 16.7195C41.1879 15.9082 41.5888 15.1906 42.1012 14.5655C42.6122 13.9403 43.2088 13.4538 43.891 13.1045C44.5733 12.7553 45.2949 12.5813 46.0573 12.5813C46.8197 12.5813 47.4938 12.7553 48.0782 13.1045C48.6626 13.4538 49.1205 13.9403 49.4535 14.5655C49.7865 15.1906 49.9523 15.9082 49.9523 16.7195C49.9523 17.5309 49.7851 18.2457 49.4535 18.8614ZM69.1349 9.78169L69.1347 9.78305H69.1335L69.1349 9.78169ZM69.1347 9.78305L68.7842 12.8476C68.0884 11.7591 67.2186 10.9151 66.1763 10.3185C65.1298 9.71782 63.957 9.41747 62.6591 9.41747C61.3612 9.41747 60.1191 9.72189 59.0808 10.3307C58.0425 10.9396 57.2339 11.7917 56.659 12.8871C56.0828 13.9824 55.7947 15.2599 55.7947 16.7209C55.7947 18.1818 56.0828 19.4348 56.659 20.5302C57.2353 21.6256 58.0425 22.4777 59.0808 23.0865C60.1191 23.6954 61.3123 23.9998 62.6591 23.9998C64.0059 23.9998 65.1298 23.6994 66.1763 23.0987C67.2227 22.4994 68.0898 21.6514 68.7788 20.5574L69.1335 23.6342H73.3451L72.5419 16.7209L73.3451 9.78305H69.1347ZM65.9575 20.31C65.2834 20.6593 64.5658 20.8333 63.8034 20.8333C63.041 20.8333 62.3669 20.6593 61.7825 20.31C61.1982 19.9608 60.7402 19.4783 60.4072 18.8613C60.0743 18.2443 59.9085 17.5308 59.9085 16.7195C59.9085 15.9082 60.0743 15.1906 60.4072 14.5654C60.7402 13.9403 61.1982 13.4538 61.7825 13.1045C62.3669 12.7552 63.0396 12.5813 63.8034 12.5813C64.5672 12.5813 65.2847 12.7552 65.9575 13.1045C66.6302 13.4538 67.2268 13.9403 67.7473 14.5654C68.2664 15.1906 68.6728 15.9082 68.965 16.7195C68.6728 17.5308 68.2664 18.2457 67.7473 18.8613C67.2281 19.4783 66.6315 19.9608 65.9575 20.31ZM82.8406 9.9883C83.5214 9.60778 84.3328 9.41615 85.2746 9.41615V9.41887C85.5831 9.41887 85.8956 9.43926 86.2123 9.48003C86.5289 9.51944 86.8252 9.57244 87.1011 9.63768V13.1426C86.6798 13.0461 86.2571 12.9727 85.8359 12.9238C85.4132 12.8749 85.0164 12.8504 84.6426 12.8504C83.8313 12.8504 83.1001 13.0203 82.4519 13.3614C81.8023 13.7012 81.2913 14.2298 80.9175 14.9433C80.5438 15.6568 80.3576 16.5578 80.3576 17.645V23.6342H76.2928V14.3345L75.4162 9.78173H79.53L80.147 13.5027C80.3957 12.7702 80.7218 12.1179 81.1241 11.5457C81.5862 10.8893 82.1583 10.3702 82.8406 9.9883ZM88.9752 23.6329V9.63494L90.9961 10.025L93.0414 9.63494V23.6329H88.9752ZM104.653 20.7843C103.549 20.7843 102.775 20.5696 102.328 20.1388C101.881 19.7093 101.658 18.9578 101.658 17.8869V12.8476H107.792V9.7803H101.658V6.1286H99.3201L97.5915 10.0969L94.694 11.0469V12.8476H97.5915V18.4712C97.5915 19.5748 97.8062 20.541 98.237 21.3687C98.6665 22.1963 99.3324 22.8419 100.233 23.3039C101.134 23.766 102.306 23.997 103.751 23.997C104.578 23.997 105.381 23.9114 106.16 23.7415C106.939 23.5717 107.564 23.3882 108.034 23.1938V20.0287C107.548 20.2719 107.037 20.4595 106.5 20.5886C105.964 20.7191 105.347 20.7829 104.65 20.7829L104.653 20.7843ZM117.667 20.1959L122.229 9.78173L122.226 9.77901H126.536L119.623 24.2635C119.201 25.1727 118.69 25.9024 118.09 26.4542C117.489 27.006 116.835 27.4042 116.13 27.6474C115.424 27.8907 114.689 28.013 113.927 28.013C113.018 28.013 112.198 27.8989 111.468 27.6719C110.737 27.4449 110.047 27.112 109.399 26.6744V23.7525C110.081 24.1914 110.729 24.5081 111.346 24.7024C111.963 24.8968 112.645 24.9946 113.391 24.9946C114.057 24.9946 114.65 24.8451 115.169 24.5448C115.688 24.2444 116.118 23.7131 116.459 22.9507L116.544 22.7563H114.803L108.693 9.78173H113.173L117.667 20.1959Z" fill="#EDECF0"/>
</svg>
