<?xml version="1.0" encoding="utf-8"?>
<!-- Generator: Adobe Illustrator 27.4.0, SVG Export Plug-In . SVG Version: 6.00 Build 0)  -->
<svg version="1.1" xmlns="http://www.w3.org/2000/svg" xmlns:xlink="http://www.w3.org/1999/xlink" x="0px" y="0px"
	 viewBox="0 0 2805.3 1184.8" style="enable-background:new 0 0 2805.3 1184.8;" xml:space="preserve">
<style type="text/css">
	.st0{fill:#F6F7F8;}
</style>
<g id="Layer_2">
</g>
<g id="Layer_1">
	<g>
		<g>
			<path class="st0" d="M342.9,124.7c24.9,0,49,4.9,71.8,14.5c12.1,5.1,23.7,11.6,34.5,19.2l-2.3,1.2l-29.6,15.1
				c-22.6-12.6-48.3-19.2-74.4-19.2c-0.4,0-0.8,0-1.2,0c-20.1,0.2-39.7,4.2-58.2,11.9c-18.5,7.8-35.1,18.9-49.3,33.1
				c-29,29.1-45,67.7-45,108.7c0,6.7,0.4,13.4,1.3,20.1l0.3,2.1l1.9-1l255.5-130.3l52.9-27l59.9-30.6v34.6l-61.7,31.5l-30.3,15.4
				L199.7,361.5l-1.2,0.7l0,0l-13.8,7l-14,7.1l0-0.1l-1.3,0.6l-44.8,22.9v-34.6l15.2-7.7c12.7-6.5,20.3-19.9,19.2-34.2
				c-0.3-4.7-0.5-9.4-0.5-14.1c0-24.9,4.9-49.1,14.5-71.9c9.3-22,22.6-41.7,39.5-58.7c16.9-16.9,36.6-30.3,58.6-39.6
				C293.8,129.6,318,124.7,342.9,124.7"/>
		</g>
		<g>
			<path class="st0" d="M561.1,223.4V258l-15.2,7.7c-12.7,6.5-20.3,19.9-19.2,34.2c0.4,4.7,0.5,9.5,0.5,14.2
				c0,24.9-4.9,49.1-14.5,71.9c-9.3,22-22.6,41.7-39.5,58.7c-16.9,17-36.7,30.3-58.6,39.6c-22.7,9.6-46.9,14.5-71.8,14.5
				s-49-4.9-71.8-14.5c-12.2-5.2-23.8-11.7-34.6-19.3l30.6-15.6l1.2-0.6c22.6,12.6,48.4,19.3,74.6,19.3c0.4,0,0.7,0,1.1,0
				c20.1-0.1,39.7-4.1,58.2-11.9c18.5-7.8,35.1-18.9,49.3-33.1c29-29,45-67.7,45-108.7c0-6.7-0.4-13.5-1.3-20.2l-0.3-2.1l-1.9,1
				L237.2,423.2l-52.9,27l-59.7,30.4V446l61.5-31.4l30.3-15.4L561.1,223.4"/>
		</g>
	</g>
	<g>
		<path class="st0" d="M869.6,251.5h-33.8c-8.5-28.7-36.5-38.3-61.5-38.3c-19.1,0-52.6,8.5-52.6,36.2c0,21.9,17.4,32.8,40.3,37.9
			l28.7,6.5c37.9,8.2,83.3,22.5,83.3,72.4c0,48.5-45.1,74.1-94.3,74.1c-58.4,0-95.3-31.8-101.8-81.3h34.2
			c6.5,34.2,30.4,51.9,68.3,51.9c36.5,0,57.7-17.4,57.7-41.7c0-26-22.2-36.9-53.3-43.7l-30.7-6.5c-33.8-7.5-68-26.3-68-67.6
			c0-47.1,49.5-67.6,89.5-67.6C820.1,183.9,860,203.7,869.6,251.5z"/>
		<path class="st0" d="M950.9,206.1v46.1h34.8v24.9h-34.8v108.9c0,19.1,1.4,23.9,19.1,23.9h15.7v26h-22.5
			c-35.2,0-43.4-7.9-43.4-46.1V277.1h-29v-24.9h29v-46.1H950.9z"/>
		<path class="st0" d="M1090.9,413.1c27.3,0,42.3-12.3,50.2-30.4h32.1c-8.5,31.8-37.6,57.7-82.3,57.7c-58.1,0-90.2-41.7-90.2-96
			c0-58.1,38.9-95.3,89.1-95.3c56,0,89.8,47.1,85.7,105.2h-141.4C1035.6,393.9,1063.6,413.1,1090.9,413.1z M1142.8,327.7
			c-0.7-26-20.1-51.9-52.9-51.9c-27.7,0-52.6,15-55.3,51.9H1142.8z"/>
		<path class="st0" d="M1205,435.9V188.3h31.1v247.6H1205z"/>
		<path class="st0" d="M1274.3,435.9V188.3h31.1v247.6H1274.3z"/>
		<path class="st0" d="M1458.4,322.9v-4.4c0-33.5-18.8-44.7-41.7-44.7c-25.6,0-40.6,14-42,36.5h-32.1c3.1-39.6,37.9-61.8,73.8-61.8
			c50.5,0,73.4,24.2,73.1,75.8l-0.3,42.3c-0.3,30.7,1.4,51.9,4.8,69.3h-31.4c-1-6.8-2-14.3-2.4-25.3c-11.3,18.8-30.4,29.7-62.8,29.7
			c-34.5,0-63.2-19.1-63.2-52.9C1334.1,344.1,1382.9,331.4,1458.4,322.9z M1368.6,386.8c0,17.4,13.3,29,35.5,29
			c29,0,56.7-13.3,56.7-56.7v-11.6C1404.4,353.3,1368.6,361.5,1368.6,386.8z"/>
		<path class="st0" d="M1602.5,283.3c-28.7,0-43,16.1-43,56.4v96.3h-31.1V252.2h30.4v32.1c9.2-20.8,28-32.4,51.9-33.1
			c3.1,0,5.8,0,9.2,0.3v33.1C1613.4,284,1607.6,283.3,1602.5,283.3z"/>
		<path class="st0" d="M889.4,624.4c0,94.6-56.4,124-134.9,124h-67.6V500.7h67.6C833.1,500.7,889.4,530.1,889.4,624.4z M721.7,530.1
			V719h31.8c51.2,0,100.4-10.2,100.4-94.6c0-84-49.2-94.3-100.4-94.3H721.7z"/>
		<path class="st0" d="M999,725.5c27.3,0,42.3-12.3,50.2-30.4h32.1c-8.5,31.8-37.6,57.7-82.3,57.7c-58.1,0-90.2-41.7-90.2-96
			c0-58.1,38.9-95.3,89.1-95.3c56,0,89.8,47.1,85.7,105.2H942.4C943.7,706.3,971.7,725.5,999,725.5z M1051,640.1
			c-0.7-26-20.1-51.9-52.9-51.9c-27.7,0-52.6,15-55.3,51.9H1051z"/>
		<path class="st0" d="M1223.8,564.6h32.1l-69.3,183.7h-27.7l-69.3-183.7h34.5l49.9,140.7L1223.8,564.6z"/>
		<path class="st0" d="M1343.6,725.5c27.3,0,42.3-12.3,50.2-30.4h32.1c-8.5,31.8-37.6,57.7-82.3,57.7c-58.1,0-90.2-41.7-90.2-96
			c0-58.1,38.9-95.3,89.1-95.3c56,0,89.8,47.1,85.7,105.2h-141.4C1288.3,706.3,1316.3,725.5,1343.6,725.5z M1395.6,640.1
			c-0.7-26-20.1-51.9-52.9-51.9c-27.7,0-52.6,15-55.3,51.9H1395.6z"/>
		<path class="st0" d="M1456.7,748.3V500.7h31.1v247.6H1456.7z"/>
		<path class="st0" d="M1604.6,752.8c-42.7,0-88.1-29-88.1-95.6c0-66.6,45.4-95.6,88.1-95.6c42.7,0,88.1,29,88.1,95.6
			C1692.7,723.7,1647.2,752.8,1604.6,752.8z M1659.5,657.1c0-48.8-27-68.3-55-68.3s-55,18.1-55,68.3c0,48.8,27,68.3,55,68.3
			S1659.5,704.3,1659.5,657.1z"/>
		<path class="st0" d="M1752.8,593.6c11.3-19.5,30.7-32.1,60.1-32.1c42,0,78.6,35.2,78.6,95.6c0,60.8-36.5,95.6-78.6,95.6
			c-29.4,0-48.8-12.6-60.1-32.1v87.4h-31.1V564.6h31.1V593.6z M1857.6,657.1c0-43.7-20.8-69-52.6-69c-27.7,0-53.6,20.5-53.6,69
			s26,69,53.6,69C1836.8,726.1,1857.6,700.9,1857.6,657.1z"/>
		<path class="st0" d="M1920.1,748.3V564.6h31.1v27.7c10.6-17.4,27.7-30.7,55.3-30.7c28,0,44.7,12.3,52.9,32.4
			c14.7-22.5,36.2-32.4,61.8-32.4c42.7,0,59.4,28.7,59.4,70.7v116.1h-31.1V641.4c0-28.3-5.5-52.9-39.3-52.9
			c-26.6,0-44.4,20.8-44.4,60.1v99.7h-31.1V641.4c0-28.3-5.5-52.9-39.3-52.9c-26.6,0-44.4,20.8-44.4,60.1v99.7H1920.1z"/>
		<path class="st0" d="M2300.6,725.5c27.3,0,42.3-12.3,50.2-30.4h32.1c-8.5,31.8-37.6,57.7-82.3,57.7c-58.1,0-90.2-41.7-90.2-96
			c0-58.1,38.9-95.3,89.1-95.3c56,0,89.8,47.1,85.7,105.2h-141.4C2245.2,706.3,2273.2,725.5,2300.6,725.5z M2352.5,640.1
			c-0.7-26-20.1-51.9-52.9-51.9c-27.7,0-52.6,15-55.3,51.9H2352.5z"/>
		<path class="st0" d="M2504.8,561.5c44.4,0,60.4,28.7,60.4,70.7v116.1h-31.1V641.4c0-28.3-4.8-52.9-40.3-52.9
			c-30.1,0-48.5,20.8-48.5,60.1v99.7h-31.1V564.6h31.1v27.7C2456,574.8,2473.7,561.5,2504.8,561.5z"/>
		<path class="st0" d="M2644.8,518.5v46.1h34.8v24.9h-34.8v108.9c0,19.1,1.4,23.9,19.1,23.9h15.7v26h-22.5
			c-35.2,0-43.4-7.9-43.4-46.1V589.5h-29v-24.9h29v-46.1H2644.8z"/>
		<path class="st0" d="M847.8,813.1v30.1h-126v75.1h118.8v30.1H721.7v112.4h-34.8V813.1H847.8z"/>
		<path class="st0" d="M948.5,1065.2c-42.7,0-88.1-29-88.1-95.6s45.4-95.6,88.1-95.6c42.7,0,88.1,29,88.1,95.6
			S991.2,1065.2,948.5,1065.2z M1003.5,969.5c0-48.8-27-68.3-55-68.3s-55,18.1-55,68.3c0,48.8,27,68.3,55,68.3
			S1003.5,1016.7,1003.5,969.5z"/>
		<path class="st0" d="M1123.7,1065.2c-42.7,0-58.7-28.7-58.7-70.7V877h31.1v108.3c0,28.3,4.8,52.9,38.6,52.9
			c29.4,0,46.8-20.8,46.8-60.1V877h31.1v183.7h-31.1v-26.3C1170.8,1051.8,1154.1,1065.2,1123.7,1065.2z"/>
		<path class="st0" d="M1341.2,873.9c44.4,0,60.4,28.7,60.4,70.7v116.1h-31.1V953.8c0-28.3-4.8-52.9-40.3-52.9
			c-30.1,0-48.5,20.8-48.5,60.1v99.7h-31.1V877h31.1v27.7C1292.4,887.2,1310.2,873.9,1341.2,873.9z"/>
		<path class="st0" d="M1600.1,813.1v247.6H1569v-27.7c-11.3,19.5-30.7,32.1-60.1,32.1c-42,0-78.6-34.8-78.6-95.6
			c0-60.4,36.5-95.6,78.6-95.6c29.4,0,48.8,12.6,60.1,32.1v-92.9H1600.1z M1464.2,969.5c0,43.7,20.8,69,52.6,69
			c27.7,0,53.6-20.5,53.6-69s-26-69-53.6-69C1485,900.5,1464.2,925.8,1464.2,969.5z"/>
		<path class="st0" d="M1753.8,947.7v-4.4c0-33.5-18.8-44.7-41.7-44.7c-25.6,0-40.6,14-42,36.5H1638c3.1-39.6,37.9-61.8,73.8-61.8
			c50.5,0,73.4,24.2,73.1,75.8l-0.3,42.3c-0.3,30.7,1.4,51.9,4.8,69.3h-31.4c-1-6.8-2-14.3-2.4-25.3c-11.3,18.8-30.4,29.7-62.8,29.7
			c-34.5,0-63.2-19.1-63.2-52.9C1629.5,968.8,1678.3,956.2,1753.8,947.7z M1664,1011.5c0,17.4,13.3,29,35.5,29
			c29,0,56.7-13.3,56.7-56.7v-11.6C1699.8,978.1,1664,986.3,1664,1011.5z"/>
		<path class="st0" d="M1864.1,830.9V877h34.8v24.9h-34.8v108.9c0,19.1,1.4,23.9,19.1,23.9h15.7v26h-22.5
			c-35.2,0-43.4-7.9-43.4-46.1V901.9h-29V877h29v-46.1H1864.1z"/>
		<path class="st0" d="M1967.9,850.7h-31.1v-37.6h31.1V850.7z M1967.9,1060.7h-31.1V877h31.1V1060.7z"/>
		<path class="st0" d="M2085.1,1065.2c-42.7,0-88.1-29-88.1-95.6s45.4-95.6,88.1-95.6c42.7,0,88.1,29,88.1,95.6
			S2127.8,1065.2,2085.1,1065.2z M2140,969.5c0-48.8-27-68.3-55-68.3s-55,18.1-55,68.3c0,48.8,27,68.3,55,68.3
			S2140,1016.7,2140,969.5z"/>
		<path class="st0" d="M2292,873.9c44.4,0,60.4,28.7,60.4,70.7v116.1h-31.1V953.8c0-28.3-4.8-52.9-40.3-52.9
			c-30.1,0-48.5,20.8-48.5,60.1v99.7h-31.1V877h31.1v27.7C2243.2,887.2,2260.9,873.9,2292,873.9z"/>
	</g>
</g>
</svg>
